<svg width="270" height="270" xmlns="http://www.w3.org/2000/svg" xmlns:xlink="http://www.w3.org/1999/xlink">
<g stroke-width="0" fill="#e70" transform="translate(15,15)">
<path d="M0,30 
A30,30 0 0,1 30,0
L210,0
A30,30 0 0,1 240,30
L240,210
A30,30 0 0,1 210,240
L185,240
L185,75
A20,20 0 0,0 165,55
L75,55
A20,20 0 0,0 55,75
L55,165
A20,20 0 0,0 75,185
L160,185
L160,240
L30,240
A30,30 0 0,1 0,210
Z

M80,90
A10,10 0 0,1 90,80
L150,80
A10,10 0 0,1 160,90
L160,150
A10,10 0 0,1 150,160
L90,160
A10,10 0 0,1 80,150
Z
"
/>
</g>
</svg>
